<?xml version="1.0" encoding="iso-8859-1"?>
<!-- Generator: Adobe Illustrator 19.0.0, SVG Export Plug-In . SVG Version: 6.00 Build 0)  -->
<svg version="1.1" id="Capa_1" xmlns="http://www.w3.org/2000/svg" xmlns:xlink="http://www.w3.org/1999/xlink" x="0px" y="0px"
	 viewBox="0 0 512 512" style="enable-background:new 0 0 512 512;" xml:space="preserve">
<g>
	<g>
		<path d="M333.471,173.685c-6.586-4.267-14.793-4.899-21.953-1.692c-12.975,5.808-26.651,9.472-40.512,11.009v-23.041
			c28.079-7.152,48.909-32.648,48.909-62.923c0-13.815-7.838-31.861-23.962-55.168c-11.405-16.486-23.615-30.774-28.334-36.15
			C264.428,2.085,259.825,0,254.989,0c-0.001,0-0.002,0-0.003,0c-4.836,0.001-9.439,2.087-12.626,5.72
			c-4.72,5.378-16.93,19.665-28.335,36.151c-16.124,23.308-23.962,41.353-23.962,55.168c0,30.993,21.834,56.967,50.923,63.389
			v22.573c-13.859-1.537-27.534-5.202-40.505-11.008c-7.161-3.207-15.367-2.572-21.953,1.692
			c-6.584,4.267-10.516,11.499-10.516,19.345v283.331C168.013,496.013,184,512,203.652,512h104.697
			c19.652,0,35.639-15.988,35.639-35.639V193.03C343.988,185.184,340.057,177.952,333.471,173.685z M240.986,109.496v19.508
			c-12.293-5.407-20.903-17.696-20.903-31.965c0-10.269,14.186-34.256,34.907-59.757c20.717,25.497,34.906,49.488,34.906,59.757
			c0,13.475-7.68,25.183-18.889,30.999v-18.543c0-8.29-6.72-15.01-15.01-15.01C247.706,94.486,240.986,101.206,240.986,109.496z
			 M313.968,476.361c0,3.099-2.521,5.619-5.619,5.619H203.652c-3.098,0-5.619-2.521-5.619-5.619V203.415
			c18.542,6.912,38.042,10.388,57.548,10.437c0.14,0.004,0.276,0.021,0.416,0.021s0.275-0.017,0.414-0.021
			c19.51-0.048,39.013-3.524,57.557-10.437V476.361z"/>
	</g>
</g>
<g>
</g>
<g>
</g>
<g>
</g>
<g>
</g>
<g>
</g>
<g>
</g>
<g>
</g>
<g>
</g>
<g>
</g>
<g>
</g>
<g>
</g>
<g>
</g>
<g>
</g>
<g>
</g>
<g>
</g>
</svg>
