<svg width="26" height="26" xmlns="http://www.w3.org/2000/svg">

 <g>
  <title>background</title>
  <rect fill="none" id="canvas_background" height="402" width="582" y="-1" x="-1"/>
 </g>
 <g>
  <title>Layer 1</title>
  <path id="svg_1" fill="#000000" d="m24.25,2.58984l-2.83594,0c-0.02679,0 -0.04956,0.01252 -0.07562,0.01526c-0.05438,0.00556 -0.10522,0.01459 -0.15619,0.03156c-0.04266,0.0141 -0.08118,0.03149 -0.12006,0.05261c-0.04473,0.02435 -0.08508,0.05078 -0.12408,0.08368c-0.03589,0.03015 -0.06635,0.06226 -0.09601,0.09845c-0.03058,0.03729 -0.0567,0.07526 -0.07989,0.11847c-0.02399,0.04437 -0.04084,0.0899 -0.05555,0.1391c-0.00799,0.02667 -0.02526,0.04809 -0.03039,0.07611l-0.42951,2.34735l-18.35369,1.07257c-0.07032,-0.00488 -0.13233,0.00537 -0.21094,0.0127c-0.40772,0.0371 -0.71045,0.39453 -0.68018,0.80273c0.00244,0.03076 0.00635,0.06055 0.01221,0.08984l1.27881,6.97461c0.29248,1.08155 1.19336,2.17334 2.54834,2.17334l13.36957,0l-0.28626,1.56446l-11.24982,0c-1.42431,0 -2.58349,1.15918 -2.58349,2.58349c0,1.42481 1.15918,2.58399 2.58349,2.58399s2.5835,-1.15918 2.5835,-2.58399c0,-0.38812 -0.09222,-0.75287 -0.24628,-1.08349l6.90808,0c-0.15405,0.33062 -0.24627,0.69537 -0.24627,1.08349c0,1.42481 1.15918,2.58399 2.58349,2.58399s2.5835,-1.15918 2.5835,-2.58399c0,-1.01275 -0.59143,-1.88251 -1.44214,-2.30578l2.64057,-14.43055l2.21075,0c0.41406,0 0.75,-0.33593 0.75,-0.75s-0.33594,-0.75 -0.75,-0.75zm-5.22791,9.65497l-3.17822,0.04993l0.1731,-1.84192l3.35144,-0.10046l-0.34632,1.89245zm-15.8778,-1.40606l3.17596,-0.09522l0.20777,1.69745l-3.08155,0.0484l-0.30218,-1.65063zm4.17926,-0.12531l3.4909,-0.10461l0,1.76483l-3.28131,0.05157l-0.20959,-1.71179zm3.4909,-1.10553l-3.61297,0.10834l-0.23084,-1.88538l3.84381,-0.22473l0,2.00177zm1,-2.06024l3.49024,-0.2041l-0.20069,2.13574l-3.28955,0.09863l0,-2.03027zm-1,5.82623l0,1.80432l-2.94427,0l-0.21485,-1.7547l3.15912,-0.04962zm1,-0.01568l2.92939,-0.04596l-0.17536,1.86596l-2.75403,0l0,-1.82zm0,-1.00025l0,-1.77911l3.19525,-0.09583l-0.17175,1.82746l-3.0235,0.04748zm7.7381,-3.01202l-3.44128,0.10315l0.20337,-2.16455l3.65423,-0.21369l-0.41632,2.27509zm-13.58179,-1.45661l0.22736,1.85694l-3.23614,0.09704c-0.13636,-0.74084 -0.24494,-1.31659 -0.33747,-1.75836l3.34625,-0.19562zm-2.21588,6.28498l-0.12585,-0.68756l3.02124,-0.04743l0.21289,1.73889l-2.02185,0c-0.64258,0 -1.00049,-0.69629 -1.08643,-1.0039zm11.81806,1.0039l0.17682,-1.88177l3.0888,-0.04853l-0.35321,1.9303l-2.91241,0zm-7.81464,5.64795c0,0.59766 -0.48584,1.08399 -1.0835,1.08399s-1.08349,-0.48633 -1.08349,-1.08399s0.48584,-1.08349 1.08349,-1.08349s1.0835,0.48584 1.0835,1.08349zm10.49902,1.08399c-0.59765,0 -1.08349,-0.48633 -1.08349,-1.08399s0.48584,-1.08349 1.08349,-1.08349s1.0835,0.48584 1.0835,1.08349s-0.48584,1.08399 -1.0835,1.08399z"/>
 </g>
</svg>