<svg height="512pt" viewBox="-61 0 512 512" width="512pt" xmlns="http://www.w3.org/2000/svg"><path d="m240 285v-38.34375c14.667969-9.84375 27.316406-22.433594 37.140625-36.96875 2.617187.195312 5.238281.3125 7.859375.3125 57.898438 0 105-47.101562 105-105s-47.101562-105-105-105c-52.804688 0-96.621094 39.183594-103.925781 90h-35.261719l-26.582031-79.742188c-2.042969-6.125-7.773438-10.257812-14.230469-10.257812h-90c-8.285156 0-15 6.714844-15 15s6.714844 15 15 15h79.1875l20 60h-69.1875c-8.285156 0-15 6.714844-15 15v30c0 43.589844 21.382812 85.742188 60 111.65625v38.34375c0 36.21875 25.808594 66.523438 60 73.492188v63.507812c-41.355469 0-75 33.644531-75 75 0 8.285156 6.714844 15 15 15h150c8.285156 0 15-6.714844 15-15 0-41.355469-33.644531-75-75-75v-63.507812c34.191406-6.96875 60-37.273438 60-73.492188zm-17.570312 197h-114.859376c6.191407-17.460938 22.871094-30 42.429688-30h30c19.558594 0 36.238281 12.539062 42.429688 30zm62.570312-452c41.355469 0 75 33.644531 75 75 0 38.886719-29.75 70.949219-67.6875 74.636719 4.984375-14.050781 7.6875-29.246094 7.6875-44.636719v-30c0-8.285156-6.714844-15-15-15h-73.492188c6.96875-34.191406 37.273438-60 73.492188-60zm-225 90h210v15c0 5.078125-.371094 10.085938-1.078125 15h-207.84375c-.703125-4.914062-1.078125-9.921875-1.078125-15zm60 165v-46.644531c0-5.339844-2.839844-10.277344-7.453125-12.960938-18.894531-10.996093-33.402344-26.832031-42.34375-45.40625h189.59375c-9.371094 19.46875-24.324219 34.917969-42.34375 45.40625-4.613281 2.683594-7.453125 7.621094-7.453125 12.960938v46.644531c0 24.8125-20.1875 45-45 45s-45-20.1875-45-45zm0 0"/><path d="m195 225c0 8.285156-6.714844 15-15 15s-15-6.714844-15-15 6.714844-15 15-15 15 6.714844 15 15zm0 0"/><path d="m180 285c0 8.285156-6.714844 15-15 15s-15-6.714844-15-15 6.714844-15 15-15 15 6.714844 15 15zm0 0"/></svg>