<svg width="100" height="100" xmlns="http://www.w3.org/2000/svg">

 <g>
  <title>background</title>
  <rect fill="none" id="canvas_background" height="402" width="582" y="-1" x="-1"/>
 </g>
 <g>
  <title>Layer 1</title>
  <path stroke="null" id="svg_1" d="m28.323304,84.965304l-4.876024,0c-1.11452,0 -2.089725,0.975205 -2.089725,2.089725s0.975205,2.089725 2.089725,2.089725l4.876024,0l0,4.736709c0,1.11452 0.975205,2.089725 2.089725,2.089725s2.089725,-0.975205 2.089725,-2.089725l0,-4.736709l4.876024,0c1.11452,0 2.089725,-0.975205 2.089725,-2.089725s-0.975205,-2.089725 -2.089725,-2.089725l-4.876024,0l0,-10.030678c11.702458,-1.11452 20.897246,-10.866568 20.897246,-22.847656c0,-3.900819 -0.975205,-7.801639 -2.925614,-11.145198c-0.55726,-0.975205 -1.811095,-1.39315 -2.786299,-0.83589c-0.975205,0.55726 -1.39315,1.811095 -0.83589,2.786299c1.532465,2.786299 2.368355,5.990544 2.368355,9.194788c0,10.309308 -8.498213,18.807521 -18.807521,18.807521s-18.807521,-8.498213 -18.807521,-18.807521s8.498213,-18.807521 18.807521,-18.807521c2.50767,0 5.015339,0.55726 7.383694,1.532465c1.11452,0.417945 2.22904,0 2.786299,-1.11452c0.417945,-1.11452 0,-2.22904 -1.11452,-2.786299c-2.786299,-1.253835 -5.851229,-1.811095 -8.916158,-1.811095c-12.677663,0 -22.986971,10.309308 -22.986971,22.986971c0,11.981088 9.194788,21.872451 20.897246,22.847656l0,10.030678l-0.139315,0z"/>
  <path stroke="null" id="svg_2" d="m94.356898,9.293717c-0.275751,-0.551502 -0.551502,-0.965128 -1.103003,-1.103003c0,0 0,0 0,0c-0.275751,-0.137875 -0.551502,-0.137875 -0.689377,-0.137875l-9.92703,0c-1.103003,0 -2.068131,0.965128 -2.068131,2.068131s0.965128,2.068131 2.068131,2.068131l4.687764,0l-9.651279,9.651279c-4.136262,-3.446885 -9.237653,-5.239266 -14.614794,-5.239266c-6.066518,0 -11.857286,2.343882 -16.131423,6.61802c-7.169522,7.169522 -8.686151,18.33743 -3.860512,27.161457c0.551502,0.965128 1.79238,1.378754 2.757508,0.827252c0.965128,-0.551502 1.378754,-1.79238 0.827252,-2.757508c-3.998387,-7.169522 -2.757508,-16.407174 3.171135,-22.197942c3.446885,-3.446885 8.134649,-5.515017 13.098164,-5.515017c4.963515,0 9.651279,1.930256 13.098164,5.515017s5.515017,8.134649 5.515017,13.098164c0,4.963515 -1.930256,9.651279 -5.515017,13.098164c-5.377141,5.377141 -13.373915,6.893771 -20.267686,3.998387c-1.103003,-0.413626 -2.206007,0 -2.757508,1.103003c-0.413626,1.103003 0,2.206007 1.103003,2.757508c2.895384,1.240879 5.790767,1.79238 8.824026,1.79238c5.928643,0 11.71941,-2.343882 16.131423,-6.61802c4.274138,-4.274138 6.61802,-10.064905 6.61802,-16.131423c0,-5.377141 -1.930256,-10.478531 -5.239266,-14.614794l9.651279,-9.651279l0,4.687764c0,1.103003 0.965128,2.068131 2.068131,2.068131s2.068131,-0.965128 2.068131,-2.068131l0,-9.789154c0.275751,-0.137875 0.275751,-0.413626 0.137875,-0.689377c0,0 0,0 0,0z"/>
 </g>
</svg>