<svg height="512pt" viewBox="-125 0 512 512.001" width="512pt" xmlns="http://www.w3.org/2000/svg"><path d="m132.863281 174.027344c-38.269531 0-69.398437-31.132813-69.398437-69.398438s31.132812-69.398437 69.398437-69.398437 69.398438 31.132812 69.398438 69.398437-31.132813 69.398438-69.398438 69.398438zm0-118.796875c-27.238281 0-49.398437 22.160156-49.398437 49.398437 0 27.234375 22.160156 49.394532 49.398437 49.394532s49.398438-22.160157 49.398438-49.394532c0-27.238281-22.160157-49.398437-49.398438-49.398437zm0 0"/><path d="m197.808594 425.210938c-.652344 0-1.3125-.0625-1.960938-.191407-.640625-.128906-1.257812-.320312-1.871094-.570312-.597656-.25-1.179687-.558594-1.71875-.917969-.550781-.371094-1.058593-.78125-1.519531-1.25-.46875-.460938-.878906-.972656-1.25-1.519531-.359375-.542969-.671875-1.121094-.921875-1.722657-.25-.609374-.4375-1.230468-.570312-1.867187-.128906-.652344-.1875-1.300781-.1875-1.960937 0-.652344.058594-1.3125.1875-1.949219.132812-.640625.320312-1.273438.570312-1.871094.25-.601563.5625-1.191406.921875-1.730469.371094-.550781.78125-1.058594 1.25-1.519531.460938-.460937.96875-.878906 1.519531-1.242187.539063-.359376 1.121094-.667969 1.71875-.917969.613282-.25 1.230469-.441407 1.871094-.570313 3.25-.660156 6.710938.410156 9.03125 2.730469.460938.460937.878906.96875 1.238282 1.519531.359374.539063.671874 1.128906.921874 1.730469.25.597656.4375 1.230469.570313 1.871094.128906.636719.199219 1.296875.199219 1.949219 0 2.640624-1.070313 5.210937-2.929688 7.070312-1.859375 1.867188-4.441406 2.929688-7.070312 2.929688zm0 0"/><path d="m252.246094 322.9375h-31.855469c1.378906-1.164062 2.722656-2.394531 4.019531-3.691406 31.59375-31.59375 22.648438-89.386719 22.253906-91.832032-.691406-4.25-4.023437-7.582031-8.273437-8.269531-2.445313-.398437-60.238281-9.339843-91.828125 22.25-1.300781 1.300781-2.535156 2.644531-3.699219 4.03125v-36.644531c53.019531-5.046875 94.625-49.832031 94.625-104.152344 0-57.691406-46.933593-104.628906-104.625-104.628906-57.691406 0-104.628906 46.9375-104.628906 104.628906 0 54.316406 41.609375 99.101563 94.628906 104.152344v26.476562c-2.125-2.839843-4.457031-5.558593-7.027343-8.128906-36.320313-36.316406-103.042969-25.992187-105.863282-25.53125-4.253906.6875-7.585937 4.019532-8.273437 8.269532-.457031 2.824218-10.785157 69.546874 25.535156 105.863281 2.640625 2.640625 5.441406 5.035156 8.367187 7.207031h-22.125c-5.523437 0-10 4.476562-10 10v46.265625c0 5.523437 4.476563 10 10 10h9.222657l16.972656 114.265625c.726563 4.902344 4.933594 8.53125 9.890625 8.53125h166.597656c4.957032 0 9.164063-3.628906 9.894532-8.53125l16.96875-114.261719h9.222656c5.523437 0 10-4.476562 10-10v-46.269531c0-5.523438-4.476563-10-10-10zm-91.542969-67.402344c18.621094-18.621094 52.109375-18.53125 67-17.433594 1.101563 14.898438 1.183594 48.382813-17.433594 67-13.378906 13.382813-34.441406 17.101563-50.761719 17.726563l13.757813-13.757813c3.90625-3.90625 3.90625-10.234374 0-14.140624-3.902344-3.90625-10.234375-3.90625-14.140625 0l-16.078125 16.074218c.027344-1.949218.027344-3.992187-.011719-6.109375.785156-16.109375 4.667969-36.359375 17.667969-49.359375zm-112.46875-150.90625c0-46.664062 37.964844-84.628906 84.628906-84.628906 46.664063 0 84.625 37.964844 84.625 84.628906 0 46.664063-37.960937 84.628906-84.625 84.628906-46.664062-.003906-84.628906-37.964843-84.628906-84.628906zm-6.859375 196.960938c-22.859375-22.859375-22.140625-64.210938-20.753906-81.070313 16.867187-1.390625 58.214844-2.105469 81.070312 20.753907 15.777344 15.773437 20.324219 40.351562 21.167969 59.613281v8.21875l-36.738281-36.742188c-3.90625-3.902343-10.238282-3.902343-14.144532 0-3.902343 3.90625-3.902343 10.238281.003907 14.144531l36.429687 36.429688h-2.457031c-19.792969-.257812-47.351563-4.121094-64.578125-21.347656zm-17.898438 41.347656h218.769532v26.265625h-218.769532zm184.058594 149.0625h-149.347656l-9.917969-66.785156h113.816407c5.519531 0 10-4.480469 10-10 0-5.523438-4.480469-10-10-10h-116.789063l-2.375-16.011719h179.882813zm0 0"/></svg>