<svg width="47.99999999999999" height="48.00004" xmlns="http://www.w3.org/2000/svg">

 <g>
  <title>background</title>
  <rect fill="none" id="canvas_background" height="402" width="582" y="-1" x="-1"/>
 </g>
 <g>
  <title>Layer 1</title>
  <polygon id="svg_2" fill="none" points="20.7882,25.72851 26.37017,25.72851 27.35431,20.94238 21.77191,20.94238  "/>
  <path stroke="null" id="svg_3" fill="#000000" d="m37.958755,17.874621c-0.300258,-0.368901 -0.746152,-0.571848 -1.255921,-0.571848l-4.051688,0l1.124001,-5.465874c0.10566,-0.513351 -0.007763,-1.021935 -0.31159,-1.394406c-0.300845,-0.367703 -0.746751,-0.570662 -1.25652,-0.570662c-1.007008,0 -1.957305,0.786739 -2.163846,1.79316l-0.305404,1.484993c-0.01,0.037237 -0.026113,0.072604 -0.033875,0.110428l-0.830614,4.042361l-6.820145,0l1.124001,-5.465874c0.10566,-0.513351 -0.007763,-1.021935 -0.31159,-1.394406c-0.300845,-0.367703 -0.746751,-0.570662 -1.25652,-0.570662c-1.007008,0 -1.957305,0.786739 -2.163846,1.79316l-0.317935,1.546105c-0.003875,0.016785 -0.011638,0.032457 -0.015147,0.049316l-0.83114,4.042361l-4.411628,0c-1.007008,0 -1.957904,0.786739 -2.164445,1.791962c-0.10566,0.514549 0.008362,1.021935 0.312189,1.394406c0.300845,0.368901 0.746751,0.570662 1.255921,0.570662l4.235833,0l-1.203097,5.851034l-4.411628,0c-1.007008,0 -1.957904,0.786739 -2.164445,1.79316c-0.10566,0.512166 0.007763,1.020737 0.310991,1.392022c0.300845,0.368901 0.74735,0.571848 1.257119,0.571848l4.235833,0l-1.130053,5.495275c-0.10566,0.513351 0.007763,1.021935 0.31159,1.394406c0.300258,0.367703 0.746751,0.570662 1.255921,0.570662c1.007008,0 1.957904,-0.786739 2.164445,-1.79316l1.16542,-5.667183l6.824473,0l-1.130053,5.495275c-0.10566,0.513351 0.007763,1.021935 0.31159,1.394406c0.300845,0.367703 0.746751,0.570662 1.25652,0.570662c1.007008,0 1.957305,-0.786739 2.163846,-1.79316l1.16542,-5.667183l4.237924,0c1.007008,0 1.957904,-0.786739 2.164445,-1.791962c0.108044,-0.524097 -0.001198,-1.019539 -0.307409,-1.395604c-0.299659,-0.367703 -0.74735,-0.569464 -1.260102,-0.569464l-4.062214,0l1.202571,-5.851034l4.237924,0c1.007008,0 1.957904,-0.786739 2.164445,-1.79316c0.105685,-0.512153 -0.007738,-1.020737 -0.311566,-1.392022zm-17.885157,9.036216l1.202571,-5.851034l6.824473,0l-1.203097,5.851034l-6.823947,0z"/>
 </g>
</svg>