 <svg version="1.0" xmlns="http://www.w3.org/2000/svg" width="700.000000pt" height="695.000000pt" viewBox="0 0 700.000000 695.000000" preserveAspectRatio="xMidYMid meet">
<metadata>
Created by potrace 1.12, written by Peter Selinger 2001-2015
</metadata>
<g transform="translate(0.000000,695.000000) scale(0.100000,-0.100000)" fill="#000000" stroke="none">
<path d="M3210 6899 c-709 -60 -1380 -337 -1920 -790 -130 -109 -354 -335
-448 -451 -409 -505 -661 -1092 -749 -1743 -25 -185 -25 -668 0 -845 114 -810
457 -1494 1025 -2041 541 -521 1224 -843 1990 -936 168 -20 558 -23 717 -5
464 53 866 174 1253 377 859 452 1490 1254 1726 2192 71 284 100 529 99 838 0
236 -9 349 -44 563 -122 743 -503 1442 -1064 1955 -636 581 -1472 902 -2330
896 -88 -1 -203 -5 -255 -10z m163 -484 c151 -43 162 -48 182 -79 25 -38 2
-77 -117 -193 -78 -77 -112 -103 -131 -103 -30 0 -62 36 -72 80 -4 17 -10 32
-15 35 -5 3 -45 -8 -89 -25 -396 -146 -686 -488 -767 -907 -23 -118 -23 -330
0 -437 10 -43 15 -84 13 -90 -3 -7 -31 -18 -62 -26 -46 -11 -58 -11 -65 -1
-21 35 -35 177 -34 351 0 155 4 200 23 279 55 235 172 453 341 635 49 53 174
153 255 204 75 46 234 119 296 136 59 15 56 8 43 98 -5 28 -1 41 15 57 28 28
41 27 184 -14z m619 -151 c109 -39 262 -121 348 -185 97 -73 251 -234 311
-324 92 -138 163 -303 200 -465 29 -126 36 -357 14 -485 -25 -143 -26 -136 19
-151 52 -19 76 -41 76 -73 0 -19 -27 -53 -114 -138 -101 -100 -117 -113 -148
-113 -22 0 -42 7 -52 19 -18 20 -95 268 -96 306 0 11 7 31 16 43 17 24 63 29
109 12 22 -8 27 -7 34 13 35 92 39 411 6 547 -65 275 -230 529 -448 692 -87
64 -269 159 -352 184 -30 8 -57 19 -59 23 -3 3 3 32 11 64 19 67 22 68 125 31z
m-704 -366 c8 -8 12 -67 12 -199 0 -108 5 -200 11 -215 5 -16 32 -51 58 -79
86 -91 81 -49 81 -625 l0 -511 -25 -24 c-24 -25 -25 -25 -229 -25 -202 0 -205
0 -233 24 l-28 24 0 504 c0 276 3 515 8 530 4 15 31 53 61 85 86 93 86 95 86
311 0 133 4 192 12 200 7 7 43 12 93 12 50 0 86 -5 93 -12z m864 -1089 c-2
-196 -7 -408 -10 -470 l-7 -114 -232 -3 -232 -2 -5 32 c-8 55 -27 898 -21 908
4 7 99 9 258 8 l252 -3 -3 -356z m-1569 -453 c76 -19 149 -41 162 -50 37 -24
33 -67 -10 -114 l-34 -39 32 -30 c105 -100 295 -210 445 -257 388 -122 805
-44 1120 209 51 41 96 75 100 75 4 0 26 -19 50 -42 l43 -41 -42 -43 c-60 -61
-181 -146 -290 -203 -172 -91 -351 -138 -556 -148 -230 -11 -436 33 -648 136
-119 58 -252 148 -309 210 -17 17 -34 31 -39 31 -5 0 -25 -13 -44 -30 -42 -37
-84 -40 -111 -6 -10 14 -27 60 -36 103 -10 43 -24 100 -32 127 -8 27 -14 60
-14 73 0 26 41 73 62 73 7 0 75 -15 151 -34z m-1544 -1016 c40 -40 72 -130 74
-207 2 -55 -2 -67 -31 -108 l-33 -46 25 -29 c36 -44 49 -94 43 -168 -6 -78
-58 -189 -97 -209 -34 -17 -281 -18 -298 -1 -17 17 -17 769 0 786 8 8 56 12
149 12 l137 0 31 -30z m538 -6 c78 -63 78 -66 77 -364 -1 -246 -2 -268 -21
-305 -26 -50 -51 -73 -100 -91 -107 -38 -221 5 -264 101 -16 35 -19 69 -19
291 l0 250 28 55 c38 75 89 102 189 97 62 -3 76 -7 110 -34z m661 24 c17 -17
15 -103 -2 -117 -9 -8 -44 -11 -93 -10 l-78 2 -3 -327 -2 -327 -28 -10 c-32
-12 -91 -3 -98 15 -3 7 -6 156 -7 332 l-2 319 -82 -4 c-73 -2 -82 -1 -92 18
-14 25 -14 77 -1 102 10 18 24 19 243 19 168 0 236 -3 245 -12z m586 -29 c6
-26 5 -44 -5 -65 -14 -28 -16 -29 -97 -30 l-83 0 -2 -324 -2 -324 -27 -15
c-20 -11 -35 -13 -65 -6 l-38 10 -5 329 -5 329 -75 -2 c-41 -1 -81 3 -88 7
-19 12 -27 84 -13 111 12 21 15 21 254 19 l242 -3 9 -36z m870 25 c10 -27 7
-99 -6 -112 -7 -7 -43 -12 -90 -12 l-78 0 0 -90 c0 -49 0 -93 0 -97 0 -5 28
-10 62 -13 57 -5 62 -7 71 -33 13 -40 1 -94 -24 -102 -11 -4 -41 -5 -66 -3
l-46 3 1 -95 1 -95 88 -5 88 -5 10 -38 c7 -30 5 -45 -6 -65 -15 -27 -16 -27
-147 -30 -80 -1 -140 2 -152 8 -19 10 -20 22 -20 393 0 285 3 386 12 395 8 8
57 12 154 12 120 0 143 -2 148 -16z m451 5 c70 -20 125 -101 125 -186 0 -40
-16 -53 -66 -53 -45 0 -58 10 -68 55 -11 44 -24 55 -67 55 -66 0 -69 -12 -69
-267 0 -210 1 -224 20 -243 12 -12 33 -20 55 -20 58 0 75 26 75 115 l0 75 -30
0 c-34 0 -50 23 -50 70 0 62 11 70 105 70 51 0 87 -4 91 -11 12 -20 4 -320
-10 -354 -20 -47 -69 -82 -131 -95 -115 -24 -225 36 -255 138 -8 24 -10 124
-8 283 l3 246 28 42 c50 75 153 107 252 80z m1004 -2 c23 -11 27 -26 62 -242
88 -536 86 -515 64 -531 -20 -15 -82 -19 -101 -6 -7 4 -18 39 -25 77 l-14 70
-65 0 -65 0 -8 -65 c-4 -35 -13 -70 -19 -77 -15 -19 -82 -16 -107 5 l-21 17
62 374 c56 335 64 374 83 381 31 13 127 11 154 -3z m542 -7 c42 -22 74 -65 85
-113 9 -41 -10 -57 -67 -57 -41 0 -51 4 -65 25 -12 18 -25 25 -48 25 -41 0
-56 -16 -56 -57 0 -50 19 -79 110 -168 123 -121 162 -215 126 -309 -21 -54
-81 -111 -135 -127 -78 -23 -170 17 -216 95 -47 80 -29 126 48 126 34 0 51
-12 72 -53 18 -35 42 -44 73 -27 28 16 38 46 28 86 -4 14 -53 73 -110 133
-110 115 -136 163 -136 245 1 49 21 110 47 138 50 57 170 75 244 38z m488 5
c38 -19 77 -66 91 -110 16 -49 2 -65 -61 -65 -41 0 -51 4 -65 25 -12 18 -25
25 -49 25 -46 0 -69 -29 -60 -76 5 -30 28 -60 104 -138 104 -107 125 -138 140
-207 31 -136 -84 -264 -218 -243 -82 13 -150 81 -159 160 -6 53 4 64 58 64 44
0 57 -8 78 -51 21 -42 60 -51 91 -20 44 44 28 78 -95 204 -101 103 -126 147
-132 228 -7 97 28 166 102 200 49 22 136 25 175 4z m-3121 -7 c9 -9 12 -96 12
-330 l0 -318 84 0 c67 0 85 -3 90 -16 10 -27 7 -99 -6 -112 -17 -17 -279 -17
-296 0 -17 17 -17 759 0 776 16 16 100 16 116 0z m1493 1 c20 -10 20 -20 18
-327 l-2 -317 79 -3 c89 -3 104 -13 104 -70 0 -70 -5 -72 -158 -72 -94 0 -142
4 -150 12 -18 18 -17 774 1 781 22 10 88 7 108 -4z"></path>
<path d="M3145 5847 c-3 -7 -4 -69 -3 -138 l3 -124 48 0 49 0 0 135 0 135 -46
3 c-32 2 -48 -1 -51 -11z"></path>
<path d="M3147 5523 c-2 -4 -10 -26 -17 -48 -7 -22 -36 -64 -65 -95 -68 -72
-72 -81 -76 -170 l-4 -75 205 0 205 0 3 60 c4 83 -1 96 -68 172 -40 44 -65 84
-74 113 -13 44 -14 45 -59 48 -25 2 -47 -1 -50 -5z"></path>
<path d="M2990 5086 c-1 -3 -1 -99 -1 -213 l0 -208 205 -3 206 -2 0 210 0 210
-189 0 c-104 0 -196 3 -205 6 -9 3 -16 3 -16 0z m338 -110 c6 -30 -16 -36
-139 -36 -92 0 -119 3 -129 15 -10 12 -10 18 0 30 11 13 36 15 139 13 114 -3
126 -5 129 -22z m0 -100 c2 -10 -1 -22 -7 -25 -6 -4 -65 -6 -131 -6 -127 2
-155 10 -130 40 11 13 34 15 139 13 114 -3 126 -5 129 -22z m-31 -92 c11 -29
-25 -44 -103 -44 -84 0 -104 6 -104 29 0 28 9 31 107 31 78 0 95 -3 100 -16z"></path>
<path d="M2988 4603 c-2 -5 -1 -80 2 -168 l5 -160 30 -3 c24 -2 38 5 65 33 32
33 37 35 102 35 64 0 70 -2 107 -35 40 -36 68 -44 89 -23 8 8 12 60 12 170 l0
158 -204 0 c-113 0 -206 -3 -208 -7z"></path>
<path d="M3125 4280 c-7 -12 -11 -11 70 -12 36 -1 66 3 68 8 3 13 -130 17
-138 4z"></path>
<path d="M3676 5130 c-4 -12 15 -640 22 -695 l7 -60 191 -3 c145 -2 194 1 202
10 10 13 39 735 29 744 -7 7 -448 10 -451 4z"></path>
<path d="M3700 4292 l0 -42 203 2 202 3 3 40 3 40 -206 0 -205 0 0 -43z"></path>
<path d="M844 3133 l2 -98 36 -3 c52 -4 88 30 95 91 3 27 0 59 -7 77 -12 28
-15 30 -71 30 l-58 0 3 -97z"></path>
<path d="M848 2893 c-2 -5 -3 -48 -3 -98 l0 -90 52 -3 c44 -3 53 0 67 20 9 13
16 43 16 69 0 66 -36 109 -90 109 -21 0 -40 -3 -42 -7z"></path>
<path d="M1407 3212 c-25 -27 -25 -456 -1 -490 18 -25 60 -29 90 -8 18 13 19
30 22 245 3 221 2 231 -17 250 -26 26 -72 27 -94 3z"></path>
<path d="M5056 3033 c-3 -43 -11 -95 -17 -116 -5 -20 -7 -42 -4 -47 6 -10 68
-14 76 -5 3 2 -1 37 -8 77 -7 40 -15 94 -18 121 -4 26 -10 47 -14 47 -5 0 -11
-35 -15 -77z"></path>
</g>
</svg>