 <svg version="1.0" xmlns="http://www.w3.org/2000/svg" width="700.000000pt" height="695.000000pt" viewBox="0 0 700.000000 695.000000" preserveAspectRatio="xMidYMid meet">
<metadata>
Created by potrace 1.12, written by Peter Selinger 2001-2015
</metadata>
<g transform="translate(0.000000,695.000000) scale(0.100000,-0.100000)" fill="#000000" stroke="none">
<path d="M3210 6899 c-709 -60 -1380 -337 -1920 -790 -130 -109 -354 -335
-448 -451 -409 -505 -661 -1092 -749 -1743 -25 -185 -25 -668 0 -845 114 -810
457 -1494 1025 -2041 541 -521 1224 -843 1990 -936 168 -20 558 -23 717 -5
464 53 866 174 1253 377 859 452 1490 1254 1726 2192 71 284 100 529 99 838 0
236 -9 349 -44 563 -122 743 -503 1442 -1064 1955 -636 581 -1472 902 -2330
896 -88 -1 -203 -5 -255 -10z m33 -804 c125 -36 240 -71 256 -80 67 -34 90
-109 55 -178 -22 -41 -326 -355 -373 -384 -54 -34 -105 -31 -146 10 -31 31
-65 114 -65 159 0 20 -20 23 -48 8 -9 -5 -51 -20 -92 -34 -290 -94 -586 -282
-816 -518 -282 -290 -457 -606 -553 -998 -46 -185 -56 -278 -56 -495 1 -200 6
-256 47 -448 12 -61 17 -102 11 -108 -10 -10 -179 -59 -205 -59 -25 0 -35 25
-62 161 -241 1213 505 2423 1693 2745 8 3 11 11 6 22 -60 155 -26 261 85 262
19 0 137 -29 263 -65z m1001 -236 c619 -184 1167 -666 1453 -1276 94 -202 176
-495 204 -737 18 -150 6 -512 -20 -654 -12 -62 -28 -132 -36 -154 -16 -48 -13
-58 20 -58 43 0 133 -40 160 -71 29 -35 33 -85 10 -128 -21 -41 -359 -366
-402 -386 -71 -34 -143 -5 -177 73 -27 62 -136 462 -136 498 0 72 52 124 122
124 18 -1 58 -9 88 -20 30 -10 58 -16 61 -14 4 2 12 28 19 57 84 389 64 789
-57 1147 -214 637 -702 1127 -1333 1340 -69 23 -129 46 -135 51 -9 9 27 173
47 212 11 22 26 22 112 -4z m-1098 -703 c18 -14 19 -32 24 -358 6 -401 -2
-370 130 -508 46 -48 92 -108 108 -140 l27 -55 3 -859 c3 -854 2 -859 -18
-902 -13 -26 -36 -53 -58 -66 -37 -23 -40 -23 -372 -23 -320 0 -337 1 -370 21
-19 11 -45 35 -58 54 l-22 33 2 876 3 876 25 50 c13 28 62 90 108 139 131 138
126 120 130 511 3 284 6 332 19 348 14 15 36 17 158 17 106 0 146 -4 161 -14z
m1463 -1225 c18 -18 19 -31 15 -128 -2 -59 -11 -360 -19 -668 -20 -759 -25
-853 -42 -871 -12 -12 -80 -14 -408 -14 l-395 0 -14 23 c-11 18 -17 142 -30
627 -9 333 -19 701 -23 817 l-6 212 24 10 c14 6 202 10 452 10 409 1 428 0
446 -18z m-2781 -1496 c241 -59 282 -74 312 -113 42 -52 7 -157 -69 -212 -18
-12 -31 -28 -29 -35 2 -7 42 -46 89 -87 311 -271 674 -438 1094 -505 136 -21
473 -24 585 -5 485 84 812 236 1153 535 55 49 82 67 96 62 25 -7 151 -139 151
-157 0 -33 -208 -210 -378 -322 -273 -179 -582 -298 -937 -357 -174 -30 -521
-32 -695 -6 -266 41 -479 107 -715 222 -221 108 -438 256 -572 393 l-53 53
-55 -55 c-71 -71 -121 -89 -173 -60 -20 10 -44 33 -54 50 -21 36 -138 489
-138 533 0 34 37 91 70 108 41 21 83 15 318 -42z"></path>
<path d="M2904 5071 c-2 -2 -4 -110 -4 -238 l0 -234 85 3 85 3 1 234 1 235
-82 0 c-45 1 -84 -1 -86 -3z"></path>
<path d="M2897 4503 c-2 -4 -5 -23 -5 -42 -1 -58 -50 -139 -141 -235 -107
-113 -123 -153 -119 -299 l3 -97 354 -1 355 0 -3 108 c-4 169 -7 177 -141 318
-75 79 -109 137 -119 204 l-6 46 -87 3 c-47 1 -88 -1 -91 -5z"></path>
<path d="M2630 3378 l0 -363 356 2 355 3 0 357 0 358 -355 3 -356 2 0 -362z
m570 209 c14 -7 27 -23 28 -37 7 -46 -14 -50 -244 -50 -180 0 -215 2 -228 16
-21 21 -20 40 4 64 19 19 33 20 218 20 138 0 204 -4 222 -13z m18 -179 c7 -7
12 -21 12 -33 0 -43 -13 -45 -241 -45 -184 0 -220 2 -233 16 -9 8 -16 22 -16
29 0 7 7 21 16 29 13 14 49 16 233 16 155 0 220 -3 229 -12z m-53 -182 c37
-56 -11 -76 -184 -76 -138 0 -174 10 -179 50 -7 44 18 50 190 50 155 0 158 0
173 -24z"></path>
<path d="M2630 2650 c0 -257 1 -271 20 -290 13 -13 33 -20 58 -20 33 0 45 7
81 45 72 76 81 80 198 78 120 -3 144 -12 197 -77 34 -42 41 -46 81 -46 73 0
74 3 75 310 l2 265 -356 3 -356 2 0 -270z"></path>
<path d="M2886 2358 c-12 -10 -19 -18 -16 -19 3 0 56 -2 118 -3 81 -1 112 2
112 11 0 20 -17 24 -107 26 -69 2 -90 -1 -107 -15z"></path>
<path d="M3757 3873 c-2 -5 5 -300 15 -658 l19 -650 25 -23 26 -23 324 3 c278
3 326 5 339 19 13 13 18 85 30 490 8 261 17 558 21 662 l7 187 -401 0 c-221 0
-403 -3 -405 -7z"></path>
<path d="M3797 2473 c-2 -5 -3 -41 -2 -81 l3 -73 358 0 359 0 5 77 c5 75 -1
97 -23 75 -14 -14 -650 -15 -677 -1 -10 6 -21 7 -23 3z"></path>
</g>
</svg>