 <svg version="1.0" xmlns="http://www.w3.org/2000/svg" width="700.000000pt" height="695.000000pt" viewBox="0 0 700.000000 695.000000" preserveAspectRatio="xMidYMid meet">
<metadata>
Created by potrace 1.12, written by Peter Selinger 2001-2015
</metadata>
<g transform="translate(0.000000,695.000000) scale(0.100000,-0.100000)" fill="#000000" stroke="none">
<path d="M3235 6899 c-690 -53 -1345 -311 -1890 -745 -141 -112 -405 -377
-519 -519 -901 -1126 -1005 -2685 -261 -3915 246 -407 604 -785 995 -1049 472
-319 988 -511 1555 -576 184 -22 552 -22 735 -1 663 76 1263 324 1780 734 127
102 426 402 529 532 412 520 664 1144 731 1809 15 154 13 534 -5 686 -112 962
-584 1793 -1344 2366 -658 495 -1490 740 -2306 678z m198 -1175 c168 -47 174
-64 56 -188 -44 -47 -89 -88 -100 -91 -34 -11 -58 4 -70 46 -7 21 -17 39 -23
39 -25 -1 -162 -61 -228 -100 -84 -51 -213 -171 -274 -256 -58 -81 -119 -211
-145 -309 -28 -106 -36 -264 -18 -374 7 -47 14 -90 14 -96 0 -16 -88 -37 -96
-23 -31 50 -44 328 -20 443 46 227 146 410 304 562 117 112 251 194 387 238
30 10 56 19 58 20 1 1 -3 16 -9 34 -8 24 -9 39 0 57 14 32 46 31 164 -2z m597
-169 c140 -70 290 -203 381 -336 57 -85 116 -211 146 -315 33 -115 42 -338 20
-454 -16 -81 -15 -90 11 -90 31 0 62 -29 62 -58 0 -21 -19 -45 -87 -109 -47
-45 -95 -84 -105 -86 -34 -9 -58 25 -88 128 -46 155 -39 183 44 171 l44 -7 12
53 c47 216 1 469 -122 668 -101 164 -267 306 -435 371 -43 17 -88 35 -101 40
-13 5 -21 12 -19 17 3 4 10 26 16 49 l12 42 72 -26 c40 -14 101 -40 137 -58z
m-656 -301 c3 -9 6 -81 6 -160 l0 -144 33 -37 c85 -97 77 -47 77 -494 l0 -398
-22 -15 c-18 -13 -53 -16 -175 -16 -140 0 -155 2 -173 20 -19 19 -20 33 -20
405 0 422 -1 413 60 470 53 49 60 78 60 240 l0 145 74 0 c58 0 75 -3 80 -16z
m650 -806 c-3 -156 -9 -321 -13 -368 l-6 -85 -180 0 -180 0 -7 200 c-3 110 -9
275 -11 368 l-5 167 204 0 205 0 -7 -282z m-1216 -324 c59 -14 115 -32 124
-41 25 -23 22 -53 -9 -85 l-27 -28 24 -25 c38 -40 165 -124 243 -160 109 -50
216 -76 345 -82 234 -12 445 56 631 203 l84 66 35 -35 36 -36 -45 -40 c-65
-60 -167 -127 -261 -171 -366 -171 -802 -110 -1115 157 l-53 45 -31 -26 c-64
-54 -87 -31 -125 126 -27 114 -27 118 -9 138 23 25 25 25 153 -6z m-1329 -813
c36 -36 54 -85 59 -156 4 -65 2 -73 -22 -102 l-27 -32 26 -40 c15 -22 29 -57
32 -79 7 -50 -21 -146 -54 -190 l-24 -33 -127 3 -127 3 -3 310 c-1 170 0 315
3 322 3 10 37 13 125 13 106 0 122 -2 139 -19z m435 0 c63 -42 66 -54 66 -299
0 -200 -2 -227 -19 -260 -27 -53 -66 -72 -145 -72 -64 0 -69 2 -109 39 l-42
40 -3 233 c-3 262 2 284 69 320 46 25 144 24 183 -1z m554 -29 c3 -38 0 -43
-23 -52 -14 -6 -48 -10 -75 -10 l-50 0 -2 -267 -3 -268 -50 0 -50 0 -3 268 -2
267 -53 0 c-93 0 -112 17 -99 85 l4 25 202 -2 201 -3 3 -43z m470 0 c3 -38 0
-43 -23 -52 -14 -6 -48 -10 -75 -10 l-50 0 -2 -267 -3 -268 -50 0 -50 0 -3
268 -2 267 -44 0 c-99 0 -126 21 -110 85 l6 25 202 -2 201 -3 3 -43z m171 42
l31 -6 0 -264 0 -264 70 0 c65 0 70 -2 76 -24 3 -13 4 -37 2 -52 l-3 -29 -125
0 -125 0 -3 317 c-2 295 -1 317 15 321 28 7 29 7 62 1z m549 -37 c5 -56 -9
-67 -84 -67 l-64 0 0 -80 0 -80 44 0 c53 0 68 -16 64 -67 l-3 -38 -52 -3 -53
-3 0 -80 0 -79 64 0 c75 0 89 -11 84 -67 l-3 -38 -127 -3 -128 -3 0 326 0 326
128 -3 127 -3 3 -38z m403 16 c37 -32 59 -78 59 -127 0 -30 -4 -37 -25 -42
-41 -10 -72 3 -80 33 -3 15 -11 34 -17 40 -15 18 -58 16 -80 -4 -16 -14 -18
-34 -18 -196 0 -201 5 -217 65 -217 45 0 55 16 55 86 0 57 -2 63 -22 66 -29 4
-45 48 -32 86 9 25 14 27 73 30 93 4 94 2 89 -148 -5 -141 -17 -178 -71 -210
-47 -29 -143 -27 -187 3 -74 50 -75 53 -75 302 0 211 1 225 21 252 39 53 81
73 150 73 53 0 67 -4 95 -27z m268 21 l31 -6 0 -264 0 -263 73 -3 72 -3 0 -50
0 -50 -125 0 -125 0 -3 310 c-2 283 -1 311 15 323 19 14 20 14 62 6z m526 -5
c4 -5 29 -146 57 -312 47 -285 49 -302 32 -314 -20 -14 -62 -17 -81 -5 -7 4
-16 32 -20 62 l-8 55 -55 0 -55 0 -8 -50 c-4 -27 -13 -55 -19 -62 -14 -17 -59
-17 -82 0 -17 13 -16 27 30 303 26 159 51 299 55 312 8 20 15 22 78 22 38 0
73 -5 76 -11z m435 -4 c29 -15 70 -79 70 -109 0 -28 -96 -38 -106 -11 -19 49
-94 31 -94 -23 0 -36 24 -71 99 -143 33 -33 70 -77 81 -99 27 -53 27 -132 -1
-176 -75 -123 -267 -85 -286 56 -5 35 -3 40 20 45 42 11 70 2 87 -30 28 -51
90 -42 90 12 0 37 -16 61 -96 144 -41 42 -81 93 -89 113 -32 76 -6 182 52 218
36 22 133 24 173 3z m426 -18 c29 -27 37 -41 38 -73 1 -39 1 -39 -41 -42 -32
-2 -44 1 -55 17 -22 31 -71 32 -88 1 -19 -35 2 -73 85 -160 93 -96 121 -153
112 -222 -14 -105 -134 -171 -227 -123 -57 29 -104 120 -79 151 20 24 99 16
99 -11 0 -20 37 -47 61 -43 31 4 47 49 30 81 -7 13 -46 58 -87 100 -85 87
-107 129 -106 203 1 103 53 154 160 154 57 0 66 -3 98 -33z"></path>
<path d="M3260 5125 l0 -105 35 0 35 0 0 105 0 105 -35 0 -35 0 0 -105z"></path>
<path d="M3250 4945 c-6 -19 -32 -57 -58 -86 -42 -46 -46 -57 -50 -110 l-4
-59 156 0 156 0 0 58 c0 56 -2 61 -50 117 -28 31 -54 70 -57 86 -5 26 -10 29
-43 29 -35 0 -40 -3 -50 -35z"></path>
<path d="M3140 4485 l0 -155 155 0 155 0 0 155 0 155 -155 0 -155 0 0 -155z
m260 75 c0 -20 -5 -21 -102 -18 -89 3 -103 5 -106 21 -3 15 7 17 102 17 100 0
106 -1 106 -20z m-1 -64 c20 -24 -15 -34 -111 -32 -91 1 -104 6 -95 31 9 21
189 22 206 1z m-24 -86 c0 -12 -16 -16 -74 -18 -73 -3 -100 6 -86 28 4 7 34
10 83 8 61 -2 77 -6 77 -18z"></path>
<path d="M3142 4163 c3 -126 3 -128 27 -131 16 -3 32 5 48 22 43 47 115 47
164 0 15 -14 35 -24 46 -22 16 3 18 16 21 131 l3 127 -156 0 -156 0 3 -127z"></path>
<path d="M3273 4033 c15 -2 37 -2 50 0 12 2 0 4 -28 4 -27 0 -38 -2 -22 -4z"></path>
<path d="M3655 4468 c4 -134 10 -268 14 -298 l6 -55 149 -3 c82 -1 153 1 157
5 4 5 11 140 15 301 l7 292 -177 0 -177 0 6 -242z"></path>
<path d="M3670 4053 l0 -33 154 0 c151 0 154 0 160 23 3 12 6 27 6 32 0 6 -60
10 -160 10 l-160 0 0 -32z"></path>
<path d="M1320 3140 l0 -80 31 0 c17 0 39 5 49 10 27 14 41 71 29 115 -10 34
-11 35 -59 35 l-50 0 0 -80z"></path>
<path d="M1320 2870 l0 -80 50 0 c48 0 49 1 59 35 10 37 1 86 -20 111 -6 8
-29 14 -50 14 l-39 0 0 -80z"></path>
<path d="M1779 3204 c-11 -13 -15 -58 -17 -188 -3 -199 3 -221 58 -221 53 0
60 23 60 210 0 182 -7 208 -56 213 -20 2 -36 -3 -45 -14z"></path>
<path d="M4762 3023 c-16 -105 -17 -103 19 -103 31 0 31 1 26 38 -3 20 -9 61
-13 90 -4 28 -10 52 -14 52 -3 0 -12 -35 -18 -77z"></path>
</g>
</svg>