<svg height="512pt" viewBox="-125 0 512 512" width="512pt" xmlns="http://www.w3.org/2000/svg"><path d="m262.335938 30v-30h-82.667969l-17.332031 102h-162.335938v410h247v-410h-54.234375l12.234375-72zm-232.335938 452v-268.457031c4.214844-3.289063 11.503906-8.070313 21.066406-10.867188 20.222656-5.910156 41.539063-.511719 63.359375 16.0625 24.566407 18.660157 47.003907 24.480469 65.441407 24.480469 10.011718 0 18.84375-1.714844 26.191406-4.023438 3.9375-1.238281 7.585937-2.683593 10.9375-4.230468v247.035156zm187-281.949219c-4.214844 3.289063-11.503906 8.070313-21.066406 10.867188-20.222656 5.910156-41.539063.507812-63.359375-16.066407-37.902344-28.792968-70.75-27.015624-91.632813-20.453124-3.9375 1.238281-7.585937 2.683593-10.941406 4.230468v-46.628906h187zm0 0"/><path d="m68.769531 352.820312h29.933594v29.933594h-29.933594zm0 0"/><path d="m108.535156 401.101562h29.929688v29.929688h-29.929688zm0 0"/><path d="m56.269531 416.066406h29.933594v29.933594h-29.933594zm0 0"/></svg>